<svg width="760" height="795" viewBox="0 0 760 795" fill="none" xmlns="http://www.w3.org/2000/svg">
<mask id="mask0" mask-type="alpha" maskUnits="userSpaceOnUse" x="0" y="0" width="760" height="618">
<rect width="760" height="617.5" fill="url(#paint0_radial)"/>
</mask>
<g mask="url(#mask0)">
<path opacity="0.1" d="M942.875 361.913H445.382L488.162 152L-180.5 466.916H316.993L274.213 676.875L942.875 361.913V361.913Z" fill="black"/>
<path opacity="0.2" d="M68.9971 575.902H53.1693L54.5304 568.755L33.2568 579.477H49.0846L47.7235 586.625L68.9971 575.902Z" fill="white"/>
<path opacity="0.2" d="M166.625 428.071H143.915L145.868 417.817L115.345 433.201H138.055L136.102 443.457L166.625 428.071Z" fill="white"/>
<path opacity="0.1" d="M58.4048 440.852H42.577L43.9381 433.706L22.6646 444.427H38.4923L37.1313 451.576L58.4048 440.852Z" fill="white"/>
<path opacity="0.08" d="M103.441 319.936H78.6673L80.7977 308.75L47.5 325.532H72.2739L70.1435 336.721L103.441 319.936Z" fill="white"/>
<path opacity="0.2" d="M753.283 324.028H738.143L739.445 317.192L719.096 327.448H734.236L732.934 334.286L753.283 324.028Z" fill="white"/>
<path opacity="0.1" d="M138.502 248.329H122.674L124.035 241.182L102.762 251.904H118.589L117.228 259.052L138.502 248.329Z" fill="white"/>
<path opacity="0.1" d="M135.226 503.943H113.204L115.098 494L85.5 508.917H107.521L105.628 518.863L135.226 503.943Z" fill="white"/>
<path opacity="0.1" d="M89.8327 118.252H67.1233L69.0761 107.998L38.5532 123.382H61.2626L59.3098 133.638L89.8327 118.252Z" fill="white"/>
<path opacity="0.2" d="M422.336 271.615H394.121L396.547 258.875L358.625 277.988H386.84L384.413 290.73L422.336 271.615Z" fill="white"/>
<path opacity="0.2" d="M613.245 419.997H587.783L589.973 408.5L555.75 425.748H581.212L579.023 437.248L613.245 419.997Z" fill="white"/>
<path opacity="0.2" d="M680.692 207.826H664.864L666.225 200.679L644.952 211.401H660.779L659.418 218.549L680.692 207.826Z" fill="white"/>
<path opacity="0.2" d="M703.115 394.272H687.287L688.649 387.125L667.375 397.847H683.203L681.842 404.995L703.115 394.272Z" fill="white"/>
<path opacity="0.2" d="M704.523 75.4246H688.695L690.056 68.2778L668.783 78.9996H684.61L683.249 86.148L704.523 75.4246Z" fill="white"/>
<path opacity="0.1" d="M653.62 137.372H628.158L630.348 125.875L596.125 143.123H621.587L619.398 154.623L653.62 137.372Z" fill="white"/>
</g>
<path opacity="0.1" d="M414.242 711.581C479.445 711.581 532.302 703.555 532.302 693.654C532.302 683.753 479.445 675.727 414.242 675.727C349.039 675.727 296.182 683.753 296.182 693.654C296.182 703.555 349.039 711.581 414.242 711.581Z" fill="#434343"/>
<path opacity="0.1" d="M344.641 776.261C381.035 776.261 410.538 768.813 410.538 759.625C410.538 750.437 381.035 742.989 344.641 742.989C308.247 742.989 278.744 750.437 278.744 759.625C278.744 768.813 308.247 776.261 344.641 776.261Z" fill="#434343"/>
<path opacity="0.1" d="M435.995 765.255C435.995 768.81 424.589 771.689 410.538 771.689C396.487 771.689 385.081 768.81 385.081 765.255C385.081 761.699 396.487 758.821 410.538 758.821C424.589 758.821 435.995 761.699 435.995 765.255Z" fill="#434343"/>
<path opacity="0.1" d="M239.109 723.877C313.451 723.877 373.717 716.41 373.717 707.199C373.717 697.988 313.451 690.521 239.109 690.521C164.766 690.521 104.5 697.988 104.5 707.199C104.5 716.41 164.766 723.877 239.109 723.877Z" fill="#434343"/>
<path d="M543.644 240.281C543.644 240.281 539.518 240.281 520.853 257.445C505.786 271.287 483.799 260.006 468.626 277.023C452.057 295.584 463.209 316.432 485.048 314.548C506.865 312.686 525.128 286.674 525.128 286.674L539.793 260.684L546.818 259.668V249.403" fill="#131637"/>
<path d="M567.811 246.63C567.811 246.63 576.064 254.186 567.895 261.996C555.876 273.467 550.903 288.071 546.776 299.14C542.65 310.21 540.364 338.613 517.108 334.084C493.089 329.406 511.733 305.363 511.733 305.363L530.08 269.658L536.365 259.033L541.93 249.699" fill="#131637"/>
<path d="M559.939 257.827C559.622 255.477 559.305 253.149 558.987 250.8C558.86 247.159 563.622 251.202 565.272 248.048C565.547 247.223 564.934 243.71 565.293 242.948C561.992 238.376 551.877 235.942 543.645 240.281C543.645 240.281 534.228 244.069 536.81 261.467L539.984 266.737L549.909 265.065L560.744 260.176C560.447 259.393 560.151 258.631 559.939 257.827Z" fill="#131637"/>
<path d="M564.552 262.737C564.552 262.737 566.372 266.758 563.727 272.705L557.399 269.044L564.552 262.737Z" fill="#FF907D"/>
<path d="M560.045 273.298C559.727 273.658 556.849 277.002 556.849 277.002C556.849 277.002 552.575 275.203 552.553 271.689C552.532 268.176 552.532 268.176 552.532 268.176L553.823 267.139L556.849 267.689" fill="white"/>
<path d="M540.111 263.372C540.111 263.372 543.772 263.287 546.777 259.668C546.777 259.668 542.439 255.795 545.338 252.684C547.75 250.101 550.924 253.276 550.628 256.536L548.639 259.964C548.639 259.964 550.607 261.023 554.733 254.652L558.669 253.065L566.478 257.573C566.478 257.573 565.568 265.785 560.024 273.298L554.733 270.25C554.733 270.25 553.95 273.743 557.167 276.642C555.94 277.976 555.305 278.505 553.697 279.669L545.93 275.182L542.65 280.854L537.021 280.304L532.471 279.288L530.059 275.901L531.265 271.034L536.788 261.488L540.111 263.372Z" fill="#FFCDA9"/>
<path d="M541.655 285.637C541.655 285.637 576.127 303.289 600.632 267.541L606.833 269.954C606.833 269.954 595.109 305.871 543.983 305.363C537.444 299.966 540.851 292.135 540.851 292.135" fill="#E03354"/>
<path d="M599.596 268.917L606.072 272.007L607.743 268.43L601.416 265.361L599.596 268.917Z" fill="#CC163C"/>
<path d="M461.602 318.866C461.602 318.866 468.733 339.015 490.783 349.005C504.369 333.639 515.585 320.03 536.365 312.432C542.079 308.516 543.666 290.611 542.671 280.833L529.213 270.546L528.768 270.123C522.716 272.472 520.939 270.991 505.766 282.356C480.88 301.024 461.602 318.866 461.602 318.866Z" fill="#DF335E"/>
<path d="M541.782 286.653V345.195C541.782 345.195 548.469 341.872 550.12 334.062C550.12 334.084 548.469 303.521 541.782 286.653Z" fill="#001F78"/>
<path d="M539.667 285.193L542.799 289.532C542.799 289.532 546.185 284.812 542.799 280.642L539.667 285.193Z" fill="#003591"/>
<path d="M542.798 280.642C542.798 280.642 533.424 275.161 532.027 269.742C532.027 269.742 530.694 269.298 527.773 270.314C527.773 270.314 528.493 278.166 538.65 286.674L542.798 280.642Z" fill="#CC163C"/>
<path d="M546.777 259.668C546.777 259.668 545.211 266.271 536.979 268.197C536.979 268.197 531.54 278.483 516.389 277.129C516.389 277.129 510.95 303.267 479.885 302.929C473.769 284.748 486.382 272.705 486.382 272.705L522.42 259.689L536.958 254.207" fill="#131637"/>
<path d="M639.334 324.245C648.396 302.366 638.007 277.281 616.131 268.218C594.255 259.155 569.174 269.545 560.113 291.425C551.051 313.305 561.439 338.389 583.316 347.452C605.192 356.515 630.272 346.125 639.334 324.245Z" fill="#FEDB32"/>
<path d="M599.723 269.933C578.794 269.933 561.822 286.907 561.822 307.839C561.822 328.771 578.794 345.746 599.723 345.746C620.651 345.746 637.623 328.771 637.623 307.839C637.623 286.907 620.651 269.933 599.723 269.933ZM599.723 343.206C580.191 343.206 564.362 327.374 564.362 307.839C564.362 288.304 580.191 272.473 599.723 272.473C619.255 272.473 635.084 288.304 635.084 307.839C635.084 327.374 619.255 343.206 599.723 343.206Z" fill="#FBB731"/>
<path d="M599.723 277.129C582.751 277.129 568.996 290.886 568.996 307.86C568.996 324.835 582.751 338.592 599.723 338.592C616.694 338.592 630.449 324.835 630.449 307.86C630.449 290.886 616.694 277.129 599.723 277.129ZM599.723 336.518C583.894 336.518 571.07 323.692 571.07 307.86C571.07 292.029 583.894 279.203 599.723 279.203C615.551 279.203 628.375 292.029 628.375 307.86C628.375 323.671 615.551 336.518 599.723 336.518Z" fill="#FBB731"/>
<path d="M590.242 330.74C590.242 330.74 593.734 328.771 595.152 328.56C595.152 328.56 602.093 326.422 603.193 326.168C603.193 326.168 604.399 327.396 602.643 328.539C600.908 329.682 598.39 330.528 598.39 330.528C598.39 330.528 601.521 331.205 603.532 330.93C605.542 330.634 609.542 330.19 610.6 330.909C611.658 331.629 610.579 332.348 610.579 332.348C610.579 332.348 604.442 333.047 603.109 333.195C601.945 333.343 602.326 333.766 602.326 333.766C602.326 333.766 609.457 333.534 610.748 333.682C612.039 333.809 612.547 334.338 612.06 335.354C612.06 335.354 606.537 335.714 605.711 335.777C604.886 335.841 602.199 335.608 602.262 336.497C602.262 336.497 608.441 336.645 609.499 336.729C610.557 336.814 611.023 337.491 610.261 338.275L601.733 338.507C601.733 338.507 601.141 338.529 601.289 338.909C601.437 339.248 604.971 340.306 605.394 340.391C605.817 340.476 607.15 340.835 606.706 341.809C606.706 341.809 606.516 342.127 605.267 341.788C604.018 341.449 598.114 340.666 598.114 340.666C598.114 340.666 594.094 340.137 590.39 337.597C586.645 335.036 586.92 333.322 587.597 335.735L588.74 333.661L590.242 330.74Z" fill="#FFCDA9"/>
<path d="M514.695 282.251C516.917 278.039 525.318 272.621 532.027 286.463C540.703 304.368 551.918 327.84 590.157 329.618L591.85 338.126C591.85 338.126 547.644 346.656 520.874 307.035C517.51 302.082 510.23 290.675 514.695 282.251Z" fill="#E03354"/>
<path d="M587.893 329.766L587.851 338.782L591.787 338.676L591.893 329.872L587.893 329.766Z" fill="#CC163C"/>
<path d="M598.136 265.065L602.009 265.679L606.072 272.875C606.072 272.875 607.003 272.811 608.315 272.557C608.146 271.393 608.019 271.181 607.955 270.589C608.823 270.335 610.177 270.081 611.299 269.594C612.187 269.213 612.632 268.218 612.336 267.287C611.997 266.229 611.256 264.811 609.712 263.753C607.638 262.335 601.289 261.065 598.136 265.065Z" fill="#FFD4A0"/>
<path d="M597.967 315.014V321.152H592.338V315.014H588.212V312.326H592.338V309.511H588.212V306.866H592.338V291.119H602.03C608.739 291.119 613.119 294.103 613.119 300.389V300.558C613.119 306.908 608.548 309.765 602.157 309.765H597.967V312.326H607.532V315.014H597.967ZM602.03 305.68C605.734 305.68 607.702 303.881 607.702 300.558V300.389C607.702 296.812 605.564 295.437 602.03 295.437H597.967V305.68H602.03Z" fill="#F49B4B"/>
<path d="M422.707 679.664C422.707 685.124 418.284 689.548 412.824 689.548C407.365 689.548 402.942 685.124 402.942 679.664C402.942 674.203 407.365 669.78 412.824 669.78C418.284 669.78 422.707 674.203 422.707 679.664Z" fill="#FDE0BC"/>
<path d="M420.781 679.664C420.781 684.066 417.205 687.643 412.803 687.643C408.401 687.643 404.825 684.066 404.825 679.664C404.825 675.261 408.401 671.685 412.803 671.685C417.226 671.685 420.781 675.261 420.781 679.664Z" fill="#D5E6FF"/>
<path d="M419.955 679.664C419.955 683.601 416.76 686.797 412.824 686.797C408.888 686.797 405.692 683.601 405.692 679.664C405.692 675.727 408.888 672.531 412.824 672.531C416.76 672.531 419.955 675.727 419.955 679.664Z" fill="white"/>
<path d="M211.239 500.926L142.104 540.674L151.733 541.669C151.733 541.669 181.909 538.515 200.383 521.308" fill="#00216C"/>
<path d="M208.997 518.218L253.563 542.642L225.185 509.328L211.24 503.699" fill="#00216C"/>
<path d="M299.229 525.308L257.457 512.376L214.012 498.111L171.71 541.034H179.286C179.286 541.034 205.759 531.51 216.043 511.932L253.563 542.642C253.563 542.642 271.804 552.039 282.364 546.494C297.113 538.727 299.229 525.308 299.229 525.308Z" fill="#003591"/>
<path d="M299.229 525.308L262.366 513.9C261.265 513.562 296.14 533.203 296.182 533.224C298.679 528.8 299.229 525.308 299.229 525.308Z" fill="#002974"/>
<path d="M179.285 541.034V548.251H153.658L171.709 541.034H179.285Z" fill="#000F1F"/>
<path d="M152.516 541.52L149.956 548.251L125.979 539.108L145.427 538.811L152.516 541.52Z" fill="#000F1F"/>
<path d="M273.941 456.861C273.941 456.861 279.147 465.369 277.538 479.444C277.538 479.444 238.876 479.571 214.731 438.426L221.206 432.712C221.206 432.712 248.716 460.395 273.941 456.861Z" fill="#E03354"/>
<path d="M271.043 457.178L255.912 474.66L265.181 477.623L271.043 457.178Z" fill="#BF0A32"/>
<path d="M217.736 431.251C217.736 431.251 217.44 427.484 216.869 426.256C216.869 426.256 214.901 419.674 214.541 418.658C214.541 418.658 212.954 418.362 212.975 420.33C212.996 422.298 213.652 424.711 213.652 424.711C213.652 424.711 211.472 422.616 210.647 420.88C209.822 419.145 208.065 415.758 206.965 415.314C205.843 414.87 205.843 416.097 205.843 416.097C205.843 416.097 208.51 421.304 209.081 422.425C209.568 423.399 209.039 423.335 209.039 423.335C209.039 423.335 205.484 417.6 204.701 416.669C203.918 415.716 203.241 415.589 202.712 416.52C202.712 416.52 205.336 421.05 205.716 421.748C206.097 422.425 207.706 424.415 206.965 424.838C206.965 424.838 203.6 420.055 202.987 419.272C202.352 418.489 201.59 418.468 201.378 419.483L205.653 426.32C205.653 426.32 205.949 426.807 205.568 426.87C205.23 426.934 202.521 424.711 202.246 424.415C201.95 424.119 200.976 423.272 200.426 424.14C200.426 424.14 200.278 424.457 201.209 425.262C202.119 426.066 205.843 430.299 205.843 430.299C205.843 430.299 208.362 433.177 212.319 434.765C216.297 436.352 217.503 435.251 215.26 435.992L216.297 434.003L217.736 431.251Z" fill="#FFCDA9"/>
<path d="M211.536 434.955L218.117 429.41L221.207 432.711L214.732 438.447L211.536 434.955Z" fill="#CC163C"/>
<path d="M268.863 424.5C268.863 424.5 263.911 432.352 262.26 443.908C262.26 443.908 266.175 447.21 274.428 447.21V457.898L284.247 452.162V444.733L281.94 444.331L283.506 441.22C283.506 441.22 286.808 440.987 287.929 437.601C289.072 434.214 285.199 435.04 284.247 435.463L282.893 437.601C282.893 437.601 283.252 432.775 286.173 431.526L285.157 426.785C285.178 426.764 277.75 428.415 268.863 424.5Z" fill="#FFCDA9"/>
<path d="M281.961 444.31L284.268 444.712V447.188C284.268 447.188 285.749 446.575 286.681 444.289C286.681 444.289 298.129 441.643 295.357 427.971C295.357 427.971 297.515 419.166 290.934 415.42C284.353 411.674 274.343 414.87 268.143 410.425C268.143 410.425 261.223 413.748 265.18 420.203L262.281 420.394C262.281 420.394 267.275 427.59 275.232 426.489L272.841 428.796C272.841 428.796 278.893 430.299 285.178 426.722L286.194 431.463C286.194 431.463 283.104 432.288 282.914 437.537L284.268 435.4C284.268 435.4 286.448 434.257 287.633 435.844C288.797 437.431 286.49 440.5 283.527 441.156L281.961 444.31Z" fill="#131637"/>
<path d="M271.043 430.087V436.267H268.123L271.043 430.087Z" fill="#FF907D"/>
<path d="M265.18 437.982C265.625 440.606 267.91 442.617 270.661 442.617C273.412 442.617 275.676 440.606 276.142 437.982H265.18Z" fill="white"/>
<path d="M269.434 463.337L268.228 460.12C267.889 459.21 268.333 458.215 269.243 457.856L272.46 456.649L274.301 461.517L269.434 463.337Z" fill="#001A79"/>
<path d="M269.603 462.596C269.603 462.596 258.472 481.624 263.572 500.757C270.492 483.931 274.068 467.062 274.068 467.062" fill="#001A79"/>
<path d="M299.229 525.308L262.366 513.9L269.603 462.597C269.603 462.597 272.883 451.252 281.898 452.183C290.066 453.03 297.663 464.269 298.615 477.602C299.674 492.439 299.229 525.308 299.229 525.308Z" fill="#DF335E"/>
<path d="M285.898 453.432L285.03 448.31C285.03 448.31 276.629 449.03 272.143 454.829L272.418 457.073C272.418 457.073 280.036 454.363 285.898 453.432Z" fill="#CC163C"/>
<path d="M262.789 510.874C275.888 513.392 283.972 512.482 283.972 512.482C283.972 512.482 290.384 481.095 290.722 473.475C291.082 465.75 289.58 458.194 281.432 458.533C273.074 458.893 273.476 470.703 273.476 470.703L273.962 497.688L264.778 496.841L262.789 510.874Z" fill="#BF0A33"/>
<path d="M271.444 470.089C271.444 470.089 272.1 458.215 280.84 458.681C289.516 459.146 290.32 467.062 289.135 474.851C287.971 482.449 278.321 511.911 278.321 511.911C278.321 511.911 255.53 510.852 227.216 492.058L228.74 487.021L269.603 496.397L271.444 470.089Z" fill="#E03354"/>
<path d="M225.502 486.47L216.445 483.338L208.107 484.904L204.975 494.111C204.975 494.111 207.007 495.19 208.996 489.772H211.239C211.239 489.772 214.879 492.375 218.116 492.206C221.333 492.037 224.486 492.333 224.486 492.333L225.502 486.47Z" fill="#FFCDA9"/>
<path d="M224.452 492.338L228.745 493.098L229.786 487.221L225.493 486.46L224.452 492.338Z" fill="#CC163C"/>
<path d="M188.11 469.496C188.999 469.962 189.338 471.084 189.338 471.084L198.035 498.259L195.898 498.725L186.502 469.327C186.481 469.327 187.179 468.988 188.11 469.496Z" fill="#003591"/>
<path d="M231.513 496.249H195.983V498.704H231.513V496.249Z" fill="#003591"/>
<path d="M270.49 272.618C274.232 256.771 264.42 240.892 248.576 237.15C232.732 233.408 216.856 243.221 213.114 259.067C209.373 274.914 219.184 290.793 235.028 294.535C250.872 298.277 266.749 288.464 270.49 272.618Z" fill="#FEDB32"/>
<path d="M241.795 239.773C227.405 239.773 215.745 251.435 215.745 265.827C215.745 280.219 227.405 291.881 241.795 291.881C256.185 291.881 267.845 280.219 267.845 265.827C267.845 251.456 256.185 239.773 241.795 239.773ZM241.795 290.145C228.379 290.145 217.48 279.266 217.48 265.827C217.48 252.408 228.357 241.508 241.795 241.508C255.233 241.508 266.11 252.387 266.11 265.827C266.088 279.266 255.211 290.145 241.795 290.145Z" fill="#FBB731"/>
<path d="M241.795 244.725C230.135 244.725 220.676 254.186 220.676 265.848C220.676 277.51 230.135 286.971 241.795 286.971C253.455 286.971 262.915 277.51 262.915 265.848C262.915 254.186 253.455 244.725 241.795 244.725ZM241.795 285.553C230.918 285.553 222.094 276.727 222.094 265.848C222.094 254.969 230.918 246.144 241.795 246.144C252.673 246.144 261.497 254.969 261.497 265.848C261.497 276.727 252.673 285.553 241.795 285.553Z" fill="#FBB731"/>
<path d="M288.647 303.394C288.647 311.987 281.685 318.951 273.093 318.951C264.502 318.951 257.54 311.987 257.54 303.394C257.54 294.802 264.502 287.838 273.093 287.838C281.685 287.838 288.647 294.802 288.647 303.394Z" fill="#FEDB32"/>
<path d="M273.115 289.658C265.518 289.658 259.381 295.817 259.381 303.394C259.381 310.992 265.539 317.13 273.115 317.13C280.691 317.13 286.849 310.971 286.849 303.394C286.849 295.796 280.691 289.658 273.115 289.658ZM273.115 316.22C266.026 316.22 260.291 310.484 260.291 303.394C260.291 296.304 266.026 290.568 273.115 290.568C280.204 290.568 285.939 296.304 285.939 303.394C285.939 310.484 280.183 316.22 273.115 316.22Z" fill="#FBB731"/>
<path d="M273.114 292.262C266.956 292.262 261.983 297.257 261.983 303.394C261.983 309.553 266.978 314.527 273.114 314.527C279.272 314.527 284.245 309.532 284.245 303.394C284.245 297.235 279.272 292.262 273.114 292.262ZM273.114 313.786C267.38 313.786 262.724 309.13 262.724 303.394C262.724 297.659 267.38 293.002 273.114 293.002C278.849 293.002 283.505 297.659 283.505 303.394C283.505 309.13 278.849 313.786 273.114 313.786Z" fill="#FBB731"/>
<path d="M241.477 272.049V276.621H237.266V272.049H234.219V270.038H237.287V267.943H234.219V265.975H237.287V254.207H244.524C249.54 254.207 252.799 256.429 252.799 261.128V261.255C252.799 265.996 249.37 268.112 244.609 268.112H241.477V270.017H248.63V272.028H241.477V272.049ZM244.524 265.086C247.275 265.086 248.757 263.731 248.757 261.255V261.128C248.757 258.461 247.148 257.424 244.524 257.424H241.477V265.065H244.524V265.086Z" fill="#F49B4B"/>
<path d="M272.775 307.648V310.273H270.363V307.648H268.606V306.506H270.363V305.299H268.606V304.156H270.363V297.405H274.511C277.388 297.405 279.272 298.675 279.272 301.384V301.447C279.272 304.156 277.304 305.384 274.574 305.384H272.775V306.484H276.881V307.627H272.775V307.648ZM274.511 303.648C276.098 303.648 276.944 302.865 276.944 301.447V301.384C276.944 299.86 276.034 299.267 274.511 299.267H272.775V303.669H274.511V303.648Z" fill="#F49B4B"/>
<path d="M227.722 397.239L243.085 412.605V381.81L227.722 397.239Z" fill="#78B930"/>
<path d="M219.585 400.788C248.361 393.992 266.181 365.152 259.386 336.371C252.591 307.59 223.755 289.768 194.979 296.564C166.203 303.36 148.383 332.2 155.178 360.981C161.973 389.762 190.809 407.584 219.585 400.788Z" fill="#78B930"/>
<path d="M207.28 394.213C232.419 394.213 252.798 373.83 252.798 348.687C252.798 323.544 232.419 303.161 207.28 303.161C182.141 303.161 161.761 323.544 161.761 348.687C161.761 373.83 182.141 394.213 207.28 394.213Z" fill="#1F680D"/>
<path d="M237.013 347.65C237.013 338.74 229.797 331.501 220.867 331.501C215.153 331.501 210.159 334.486 207.281 338.952C204.403 334.465 199.409 331.501 193.695 331.501C184.786 331.501 177.549 338.719 177.549 347.65C177.549 353.83 181.019 359.185 186.119 361.894L207.281 374.297L228.442 361.894C233.542 359.185 237.013 353.83 237.013 347.65Z" fill="#A9D475"/>
<path d="M489.979 693.654H335.648C318.825 693.654 305.197 680.024 305.197 663.197V330.041C305.197 313.215 318.825 299.585 335.648 299.585H489.979C506.803 299.585 520.431 313.215 520.431 330.041V663.197C520.452 680.024 506.803 693.654 489.979 693.654Z" fill="#1F680D"/>
<path d="M493.26 305.172H332.368C317.386 305.172 305.176 317.363 305.176 332.369V666.478C305.176 681.463 317.365 693.675 332.368 693.675H493.26C508.242 693.675 520.452 681.484 520.452 666.478V332.348C520.452 317.363 508.242 305.172 493.26 305.172Z" fill="#FDE0BC"/>
<path d="M491.969 689.908H333.659C320.01 689.908 308.942 678.838 308.942 665.187V333.66C308.942 320.009 320.01 308.94 333.659 308.94H491.969C505.618 308.94 516.685 320.009 516.685 333.66V665.166C516.685 678.817 505.618 689.908 491.969 689.908Z" fill="white"/>
<path d="M507.225 326.337H318.422V661.864H507.225V326.337Z" fill="#A9D475"/>
<g opacity="0.48">
<g opacity="0.48">
<g opacity="0.44">
<path opacity="0.44" d="M365.528 459.803L383.219 482.682L349.614 524.843L365.528 459.803Z" fill="#1F680D"/>
<path opacity="0.44" d="M310.169 474.83L327.818 470.026L349.614 524.843L307.905 520.8L310.169 474.83Z" fill="#1F680D"/>
<path opacity="0.44" d="M342.356 407.991L373.971 427.505L383.219 442.151L365.528 459.803L344.176 448.924L342.356 407.991Z" fill="#1F680D"/>
<path opacity="0.44" d="M392.573 551.532L412.401 583.046L387.346 609.587L359.138 587.406L392.573 551.532Z" fill="#1F680D"/>
<path opacity="0.44" d="M469.559 569.839L516.685 617.502L510.993 579.808L469.559 569.839Z" fill="#1F680D"/>
<path opacity="0.44" d="M431.573 473.835L434.832 467.655L426.007 466.66L431.573 473.835Z" fill="#1F680D"/>
<path opacity="0.44" d="M446.661 546.727L421.31 520.8L445.011 491.868L471.039 524.843L446.661 546.727Z" fill="#1F680D"/>
<g opacity="0.44">
<path opacity="0.44" d="M469.156 673.209L392.573 551.532L299.758 552.315L304.71 520.208L349.615 524.843L423.32 489.476L299.758 426.003L296.415 478.555L365.528 459.803L383.219 482.682L514.04 614.751L379.262 618.138L514.04 475.38L464.924 440.924L479.398 396.097L409.502 445.326L514.04 580.422L392.573 551.532" stroke="#00FFFF" stroke-width="0.1623" stroke-miterlimit="10" stroke-linecap="round" stroke-linejoin="round"/>
<path opacity="0.44" d="M349.615 597.629L392.573 551.532L349.615 524.843L383.219 482.682L423.321 489.476L444.376 449.538L383.219 442.152L395.43 408.351L330.041 381.239" stroke="#00FFFF" stroke-width="0.1623" stroke-miterlimit="10" stroke-linecap="round" stroke-linejoin="round"/>
</g>
<path opacity="0.44" d="M341.975 399.61L344.176 448.818L327.818 470.026L349.615 524.843L365.528 459.803L383.219 442.151L367.729 417.177L368.343 392.308L415.935 380.181L478.023 382.361L395.429 408.351L409.502 445.326L514.04 420.5L519.013 453.898L445.011 491.868L514.04 521.604L433.52 618.138L511.183 661.399" stroke="#00FFFF" stroke-width="0.1623" stroke-miterlimit="10" stroke-linecap="round" stroke-linejoin="round"/>
<path opacity="0.44" d="M324.707 594.581L353.973 551.531L370.903 538.367L421.31 520.8L445.01 491.868L464.923 440.924L444.376 449.538L365.528 459.803L517.319 477.031" stroke="#00FFFF" stroke-width="0.1623" stroke-miterlimit="10" stroke-linecap="round" stroke-linejoin="round"/>
</g>
</g>
</g>
<path d="M318.422 557.775L461.855 658.52L373.59 635.09L318.422 589.903V557.775Z" fill="#A9D475"/>
<path d="M450.406 651.303C415.024 629.207 352.809 593.205 318.422 573.458V661.864H465.452C460.797 658.182 455.739 654.647 450.406 651.303Z" fill="#78B930"/>
<path d="M431.594 321.554H394.032C391.768 321.554 389.927 319.713 389.927 317.448C389.927 315.183 391.768 313.342 394.032 313.342H431.594C433.858 313.342 435.699 315.183 435.699 317.448C435.699 319.713 433.858 321.554 431.594 321.554Z" fill="#95BEFF"/>
<path d="M395.811 316.729C396.407 316.729 396.89 316.246 396.89 315.65C396.89 315.053 396.407 314.57 395.811 314.57C395.215 314.57 394.731 315.053 394.731 315.65C394.731 316.246 395.215 316.729 395.811 316.729Z" fill="white"/>
<path d="M396.889 319.268C396.889 319.861 396.402 320.348 395.81 320.348C395.217 320.348 394.73 319.861 394.73 319.268C394.73 318.676 395.217 318.189 395.81 318.189C396.402 318.21 396.889 318.676 396.889 319.268Z" fill="white"/>
<path d="M401.735 315.649C401.735 316.242 401.248 316.728 400.656 316.728C400.063 316.728 399.577 316.242 399.577 315.649C399.577 315.056 400.063 314.57 400.656 314.57C401.27 314.591 401.735 315.078 401.735 315.649Z" fill="white"/>
<path d="M401.735 319.268C401.735 319.861 401.248 320.348 400.656 320.348C400.063 320.348 399.577 319.861 399.577 319.268C399.577 318.676 400.063 318.189 400.656 318.189C401.27 318.21 401.735 318.676 401.735 319.268Z" fill="white"/>
<path d="M406.602 315.649C406.602 316.242 406.116 316.728 405.523 316.728C404.931 316.728 404.444 316.242 404.444 315.649C404.444 315.056 404.931 314.57 405.523 314.57C406.116 314.591 406.602 315.078 406.602 315.649Z" fill="white"/>
<path d="M406.602 319.268C406.602 319.861 406.116 320.348 405.523 320.348C404.931 320.348 404.444 319.861 404.444 319.268C404.444 318.676 404.931 318.189 405.523 318.189C406.116 318.21 406.602 318.676 406.602 319.268Z" fill="white"/>
<path d="M411.448 315.649C411.448 316.242 410.961 316.728 410.369 316.728C409.776 316.728 409.29 316.242 409.29 315.649C409.29 315.056 409.776 314.57 410.369 314.57C410.961 314.57 411.448 315.078 411.448 315.649Z" fill="white"/>
<path d="M411.448 319.268C411.448 319.861 410.961 320.348 410.368 320.348C409.776 320.348 409.289 319.861 409.289 319.268C409.289 318.676 409.776 318.189 410.368 318.189C410.961 318.189 411.448 318.676 411.448 319.268Z" fill="white"/>
<path d="M415.235 316.728C415.832 316.728 416.315 316.245 416.315 315.649C416.315 315.053 415.832 314.57 415.235 314.57C414.639 314.57 414.156 315.053 414.156 315.649C414.156 316.245 414.639 316.728 415.235 316.728Z" fill="white"/>
<path d="M416.315 319.268C416.315 319.861 415.828 320.348 415.235 320.348C414.643 320.348 414.156 319.861 414.156 319.268C414.156 318.676 414.643 318.189 415.235 318.189C415.828 318.21 416.315 318.676 416.315 319.268Z" fill="white"/>
<path d="M421.161 315.649C421.161 316.242 420.674 316.728 420.082 316.728C419.489 316.728 419.002 316.242 419.002 315.649C419.002 315.056 419.489 314.57 420.082 314.57C420.695 314.591 421.161 315.078 421.161 315.649Z" fill="white"/>
<path d="M421.161 319.268C421.161 319.861 420.674 320.348 420.082 320.348C419.489 320.348 419.002 319.861 419.002 319.268C419.002 318.676 419.489 318.189 420.082 318.189C420.695 318.21 421.161 318.676 421.161 319.268Z" fill="white"/>
<path d="M426.028 315.649C426.028 316.242 425.541 316.728 424.949 316.728C424.356 316.728 423.87 316.242 423.87 315.649C423.87 315.056 424.356 314.57 424.949 314.57C425.541 314.591 426.028 315.078 426.028 315.649Z" fill="white"/>
<path d="M426.028 319.268C426.028 319.861 425.541 320.348 424.949 320.348C424.356 320.348 423.87 319.861 423.87 319.268C423.87 318.676 424.356 318.189 424.949 318.189C425.541 318.21 426.028 318.676 426.028 319.268Z" fill="white"/>
<path d="M430.874 315.649C430.874 316.242 430.388 316.728 429.795 316.728C429.203 316.728 428.716 316.242 428.716 315.649C428.716 315.056 429.203 314.57 429.795 314.57C430.409 314.591 430.874 315.078 430.874 315.649Z" fill="white"/>
<path d="M430.874 319.268C430.874 319.861 430.388 320.348 429.795 320.348C429.203 320.348 428.716 319.861 428.716 319.268C428.716 318.676 429.203 318.189 429.795 318.189C430.409 318.21 430.874 318.676 430.874 319.268Z" fill="white"/>
<path d="M379.346 317.469C379.346 320.644 376.764 323.226 373.59 323.226C370.416 323.226 367.834 320.644 367.834 317.469C367.834 314.295 370.416 311.712 373.59 311.712C376.785 311.712 379.346 314.295 379.346 317.469Z" fill="#FDE0BC"/>
<path d="M378.944 317.471C378.944 320.434 376.553 322.825 373.59 322.825C370.628 322.825 368.236 320.434 368.236 317.471C368.236 314.508 370.628 312.116 373.59 312.116C376.553 312.116 378.944 314.508 378.944 317.471Z" fill="white"/>
<path d="M373.59 322.189C376.196 322.189 378.309 320.076 378.309 317.47C378.309 314.863 376.196 312.75 373.59 312.75C370.983 312.75 368.871 314.863 368.871 317.47C368.871 320.076 370.983 322.189 373.59 322.189Z" fill="#001965"/>
<path d="M375.854 317.47C375.854 318.718 374.839 319.734 373.59 319.734C372.341 319.734 371.326 318.718 371.326 317.47C371.326 316.221 372.341 315.205 373.59 315.205C374.839 315.205 375.854 316.221 375.854 317.47Z" fill="#000025"/>
<path opacity="0.3" d="M373.59 316.052C373.59 316.962 372.85 317.702 371.94 317.702C371.03 317.702 370.289 316.962 370.289 316.052C370.289 315.142 371.03 314.401 371.94 314.401C372.85 314.401 373.59 315.142 373.59 316.052Z" fill="white"/>
<path opacity="0.3" d="M373.929 317.152C373.929 317.554 373.59 317.893 373.188 317.893C372.786 317.893 372.447 317.554 372.447 317.152C372.447 316.75 372.786 316.411 373.188 316.411C373.611 316.411 373.929 316.75 373.929 317.152Z" fill="white"/>
<path opacity="0.3" d="M375.853 320.369C375.853 320.581 375.684 320.729 375.494 320.729C375.282 320.729 375.134 320.56 375.134 320.369C375.134 320.157 375.303 320.009 375.494 320.009C375.684 320.009 375.853 320.179 375.853 320.369Z" fill="white"/>
<g opacity="0.55">
<path opacity="0.55" d="M389.079 507.762L378.392 528.546C375.493 534.176 374.943 540.758 376.89 546.79L402.072 625.418C403.807 630.815 409.584 633.778 414.959 632.064L464.9 616.063C470.297 614.328 473.259 608.55 471.545 603.174L446.363 524.546C444.437 518.514 440.163 513.477 434.534 510.577L413.753 499.889C404.759 495.233 393.713 498.767 389.079 507.762Z" fill="#1F680D"/>
</g>
<g opacity="0.88">
<path opacity="0.88" d="M399.787 498.704C404.252 497.265 409.267 497.54 413.754 499.868L434.534 510.556C440.163 513.456 444.438 518.493 446.363 524.525L471.546 603.153C473.281 608.55 470.297 614.328 464.901 616.042L414.96 632.043C409.564 633.778 403.786 630.794 402.072 625.397L376.89 546.769C374.964 540.737 375.493 534.155 378.393 528.525L389.079 507.741C391.407 503.275 395.322 500.143 399.787 498.704ZM398.708 495.36C393.163 497.138 388.635 500.969 385.968 506.154L375.282 526.938C371.938 533.457 371.325 540.885 373.547 547.849L398.729 626.476C401.035 633.694 408.802 637.694 416.039 635.387L465.98 619.386C473.196 617.079 477.196 609.312 474.889 602.073L449.707 523.446C447.464 516.461 442.66 510.789 436.142 507.424L415.362 496.736C410.177 494.069 404.273 493.582 398.708 495.36Z" fill="#1F680D"/>
</g>
<path d="M408.695 506.196C409.732 509.456 407.955 512.948 404.696 513.985C401.437 515.022 397.945 513.244 396.908 509.985C395.871 506.725 397.649 503.233 400.908 502.196C404.167 501.138 407.637 502.937 408.695 506.196Z" fill="#1F680D"/>
<path d="M406.856 506.789C407.575 509.032 406.348 511.424 404.105 512.143C401.861 512.863 399.47 511.635 398.751 509.392C398.031 507.148 399.259 504.757 401.502 504.037C403.724 503.318 406.136 504.545 406.856 506.789Z" fill="#1F680D"/>
<path d="M421.901 581.183L424.292 588.951L417.161 591.152L414.769 583.384L409.564 584.993L408.505 581.585L413.711 579.977L412.611 576.421L407.405 578.03L406.368 574.686L411.574 573.077L405.437 553.119L417.732 549.33C426.239 546.706 432.926 548.78 435.402 556.759L435.465 556.971C437.941 565.013 433.243 570.41 425.16 572.887L419.848 574.516L420.843 577.755L432.968 574.029L434.026 577.437L421.901 581.183ZM423.424 567.786C428.101 566.347 429.9 563.278 428.609 559.087L428.545 558.875C427.149 554.346 423.89 553.436 419.425 554.812L414.261 556.399L418.261 569.373L423.424 567.786Z" fill="#1F680D"/>
<g opacity="0.5">
<path opacity="0.5" d="M448.458 473.391H382.032C372.531 473.391 364.807 465.666 364.807 456.163C364.807 446.66 372.531 438.934 382.032 438.934H448.458C457.96 438.934 465.684 446.66 465.684 456.163C465.684 465.666 457.96 473.391 448.458 473.391ZM382.032 441.432C373.906 441.432 367.304 448.035 367.304 456.163C367.304 464.29 373.906 470.893 382.032 470.893H448.458C456.584 470.893 463.187 464.29 463.187 456.163C463.187 448.035 456.584 441.432 448.458 441.432H382.032Z" fill="#1F680D"/>
</g>
<path d="M448.459 472.142H382.033C373.251 472.142 366.056 464.946 366.056 456.162C366.056 447.379 373.251 440.183 382.033 440.183H448.459C457.241 440.183 464.436 447.379 464.436 456.162C464.436 464.946 457.241 472.142 448.459 472.142Z" fill="#1F680D"/>
<path d="M371.897 456.163C371.897 456.163 360.258 466.004 363.22 477.878C366.183 489.751 383.705 489.772 383.006 481.857C382.477 475.74 362.395 468.502 361.316 489.391C360.237 510.26 388.889 518.768 402.771 508.101" stroke="#1F680D" stroke-miterlimit="10"/>
<path d="M374.139 455.443C374.541 456.671 373.864 458.004 372.616 458.406C371.388 458.808 370.055 458.131 369.653 456.882C369.251 455.655 369.928 454.321 371.177 453.919C372.425 453.538 373.737 454.215 374.139 455.443Z" fill="#1F680D"/>
<path d="M373.294 455.718C373.548 456.501 373.124 457.327 372.342 457.559C371.559 457.813 370.733 457.39 370.5 456.607C370.246 455.824 370.67 454.998 371.453 454.766C372.236 454.512 373.061 454.935 373.294 455.718Z" fill="#1F680D"/>
<path d="M312.582 373.218L339.034 376.202L389.927 372.159L464.86 373.006L503.12 369.831L500.179 328.242L470.404 326.337H354.905L321.872 330.761L305.768 347.164" fill="#1F680D"/>
<path d="M338.441 344.582H288.86L318.423 326.338H356.175L338.441 344.582Z" fill="#78B930"/>
<path d="M388.022 344.582H338.441L356.174 326.338H393.926L388.022 344.582Z" fill="#1F680D"/>
<path d="M437.604 344.582H388.022L393.927 326.337H431.7L437.604 344.582Z" fill="#78B930"/>
<path d="M487.207 344.581H437.604L431.7 326.337H469.452L487.207 344.581Z" fill="#1F680D"/>
<path d="M536.788 344.581H487.207L469.452 326.337H507.204L536.788 344.581Z" fill="#78B930"/>
<path d="M511.987 400.097C525.678 400.097 536.788 388.985 536.788 375.292V344.581H487.207V375.292C487.207 389.007 498.295 400.097 511.987 400.097Z" fill="#1F680D"/>
<path d="M462.405 400.097C476.097 400.097 487.207 388.985 487.207 375.292V344.581H437.625V375.292C437.604 389.007 448.714 400.097 462.405 400.097Z" fill="#78B930"/>
<path d="M412.824 400.097C426.515 400.097 437.625 388.985 437.625 375.292V344.582H388.043V375.292C388.022 389.007 399.132 400.097 412.824 400.097Z" fill="#1F680D"/>
<path d="M363.221 400.097C376.913 400.097 388.022 388.985 388.022 375.292V344.581H338.441V375.292C338.441 389.007 349.53 400.097 363.221 400.097Z" fill="#78B930"/>
<path d="M313.64 400.097C327.331 400.097 338.441 388.986 338.441 375.292V344.582H288.859V375.292C288.859 389.007 299.948 400.097 313.64 400.097Z" fill="#1F680D"/>
<path d="M346.229 705.76H131.757C118.975 705.76 108.627 695.389 108.627 682.627V571.405C108.627 558.622 118.996 548.272 131.757 548.272H346.229C359.01 548.272 369.379 558.643 369.379 571.405V682.627C369.358 695.389 359.01 705.76 346.229 705.76Z" fill="#F49B4B"/>
<path d="M369.379 655.218H108.626V675.6H369.379V655.218Z" fill="#F7B746"/>
<path d="M369.379 641.715H108.626V647.176H369.379V641.715Z" fill="#F7B746"/>
<path d="M176.28 585.946H119.545V606.327H176.28V585.946Z" fill="#FDE0BC"/>
<path d="M253.561 585.946H196.827V606.327H253.561V585.946Z" fill="#FDE0BC"/>
<path d="M296.18 618.751C307.587 618.751 316.834 609.503 316.834 598.094C316.834 586.686 307.587 577.438 296.18 577.438C284.773 577.438 275.526 586.686 275.526 598.094C275.526 609.503 284.773 618.751 296.18 618.751Z" fill="#A9D475"/>
<path d="M330.907 618.751C342.313 618.751 351.56 609.503 351.56 598.094C351.56 586.686 342.313 577.438 330.907 577.438C319.5 577.438 310.253 586.686 310.253 598.094C310.253 609.503 319.5 618.751 330.907 618.751Z" fill="#FDE0BC"/>
<path d="M184.595 681.018H142.717V690.035H184.595V681.018Z" fill="#F7B746"/>
<path d="M215.745 681.018H206.73V690.035H215.745V681.018Z" fill="#F7B746"/>
<path d="M356.047 533.203C356.047 541.499 349.318 548.23 341.022 548.23C332.727 548.23 325.998 541.499 325.998 533.203C325.998 524.906 332.727 518.176 341.022 518.176C349.318 518.154 356.047 524.885 356.047 533.203Z" fill="#78B930"/>
<path d="M341.023 519.911C333.68 519.911 327.734 525.859 327.734 533.203C327.734 540.547 333.68 546.494 341.023 546.494C348.366 546.494 354.313 540.547 354.313 533.203C354.313 525.859 348.366 519.911 341.023 519.911ZM341.023 545.584C334.188 545.584 328.623 540.039 328.623 533.182C328.623 526.346 334.167 520.779 341.023 520.779C347.859 520.779 353.424 526.324 353.424 533.182C353.424 540.039 347.88 545.584 341.023 545.584Z" fill="#A9D475"/>
<path d="M341.023 522.43C335.076 522.43 330.251 527.255 330.251 533.203C330.251 539.15 335.076 543.976 341.023 543.976C346.969 543.976 351.794 539.15 351.794 533.203C351.794 527.255 346.969 522.43 341.023 522.43ZM341.023 543.235C335.478 543.235 330.971 538.727 330.971 533.182C330.971 527.636 335.478 523.128 341.023 523.128C346.567 523.128 351.074 527.636 351.074 533.182C351.074 538.748 346.567 543.235 341.023 543.235Z" fill="#A9D475"/>
<path d="M339.88 536.949V539.531H337.51V536.949H335.775V535.806H337.51V534.621H335.775V533.499H337.51V526.853H341.594C344.43 526.853 346.271 528.102 346.271 530.769V530.832C346.271 533.499 344.345 534.706 341.658 534.706H339.88V535.785H343.922V536.928H339.88V536.949ZM341.615 533.012C343.181 533.012 344.007 532.25 344.007 530.854V530.79C344.007 529.287 343.097 528.695 341.615 528.695H339.901V533.012H341.615Z" fill="#1F680D"/>
<path d="M622.344 466.47C622.344 474.766 615.615 481.497 607.32 481.497C599.024 481.497 592.295 474.766 592.295 466.47C592.295 458.173 599.024 451.443 607.32 451.443C615.615 451.443 622.344 458.173 622.344 466.47Z" fill="#78B930"/>
<path d="M607.299 453.199C599.956 453.199 594.009 459.147 594.009 466.491C594.009 473.835 599.956 479.783 607.299 479.783C614.642 479.783 620.588 473.835 620.588 466.491C620.588 459.147 614.642 453.199 607.299 453.199ZM607.299 478.872C600.464 478.872 594.898 473.327 594.898 466.47C594.898 459.634 600.442 454.067 607.299 454.067C614.134 454.067 619.699 459.612 619.699 466.47C619.699 473.327 614.155 478.872 607.299 478.872Z" fill="#A9D475"/>
<path d="M607.299 455.718C601.353 455.718 596.528 460.544 596.528 466.491C596.528 472.439 601.353 477.264 607.299 477.264C613.245 477.264 618.07 472.439 618.07 466.491C618.07 460.523 613.267 455.718 607.299 455.718ZM607.299 476.523C601.755 476.523 597.247 472.015 597.247 466.47C597.247 460.925 601.755 456.417 607.299 456.417C612.843 456.417 617.351 460.925 617.351 466.47C617.351 472.036 612.865 476.523 607.299 476.523Z" fill="#A9D475"/>
<path d="M607.13 470.026V472.142H605.204V470.026H603.786V469.094H605.204V468.121H603.786V467.211H605.204V461.792H608.548C610.854 461.792 612.357 462.808 612.357 464.988V465.052C612.357 467.232 610.791 468.205 608.59 468.205H607.151V469.094H610.452V470.026H607.13ZM608.526 466.83C609.796 466.83 610.473 466.216 610.473 465.073V465.01C610.473 463.782 609.733 463.316 608.526 463.316H607.13V466.83H608.526Z" fill="#1F680D"/>
<path d="M636.692 445.834C636.692 450.935 632.566 455.062 627.466 455.062C622.366 455.062 618.239 450.935 618.239 445.834C618.239 440.733 622.366 436.606 627.466 436.606C632.566 436.606 636.692 440.733 636.692 445.834Z" fill="#78B930"/>
<path d="M627.465 437.686C622.958 437.686 619.318 441.347 619.318 445.834C619.318 450.321 622.979 453.983 627.465 453.983C631.972 453.983 635.612 450.321 635.612 445.834C635.612 441.347 631.972 437.686 627.465 437.686ZM627.465 453.432C623.275 453.432 619.868 450.025 619.868 445.834C619.868 441.643 623.275 438.236 627.465 438.236C631.676 438.236 635.062 441.643 635.062 445.834C635.062 450.025 631.676 453.432 627.465 453.432Z" fill="#1F680D"/>
<path d="M627.466 439.23C623.826 439.23 620.863 442.194 620.863 445.834C620.863 449.474 623.826 452.437 627.466 452.437C631.105 452.437 634.068 449.474 634.068 445.834C634.089 442.172 631.127 439.23 627.466 439.23ZM627.466 451.993C624.059 451.993 621.308 449.241 621.308 445.834C621.308 442.426 624.059 439.675 627.466 439.675C630.873 439.675 633.624 442.426 633.624 445.834C633.645 449.241 630.873 451.993 627.466 451.993Z" fill="#1F680D"/>
<path d="M627.339 448.183V449.813H625.836V448.183H624.736V447.464H625.836V446.723H624.736V446.025H625.836V441.834H628.418C630.196 441.834 631.359 442.617 631.359 444.31V444.353C631.359 446.046 630.132 446.808 628.439 446.808H627.318V447.485H629.857V448.205H627.339V448.183ZM628.418 445.707C629.391 445.707 629.92 445.22 629.92 444.353V444.31C629.92 443.358 629.349 442.998 628.418 442.998H627.339V445.728H628.418V445.707Z" fill="#1F680D"/>
<path d="M618.451 497.391C618.451 501.328 615.256 504.503 611.341 504.503C607.426 504.503 604.23 501.307 604.23 497.391C604.23 493.476 607.426 490.28 611.341 490.28C615.256 490.28 618.451 493.455 618.451 497.391Z" fill="#78B930"/>
<path d="M611.319 491.105C607.849 491.105 605.013 493.92 605.013 497.413C605.013 500.884 607.828 503.72 611.319 503.72C614.79 503.72 617.625 500.905 617.625 497.413C617.625 493.92 614.79 491.105 611.319 491.105ZM611.319 503.275C608.082 503.275 605.436 500.651 605.436 497.391C605.436 494.153 608.06 491.508 611.319 491.508C614.557 491.508 617.202 494.132 617.202 497.391C617.202 500.63 614.557 503.275 611.319 503.275Z" fill="#A9D475"/>
<path d="M611.319 492.291C608.505 492.291 606.219 494.576 606.219 497.391C606.219 500.206 608.505 502.492 611.319 502.492C614.134 502.492 616.419 500.206 616.419 497.391C616.419 494.576 614.134 492.291 611.319 492.291ZM611.319 502.153C608.695 502.153 606.558 500.016 606.558 497.391C606.558 494.767 608.695 492.629 611.319 492.629C613.943 492.629 616.081 494.767 616.081 497.391C616.081 500.016 613.943 502.153 611.319 502.153Z" fill="#A9D475"/>
<path d="M610.854 498.937V499.995H609.881V498.937H609.161V498.471H609.881V497.984H609.161V497.519H609.881V494.767H611.574C612.737 494.767 613.499 495.296 613.499 496.376V496.397C613.499 497.497 612.695 498.005 611.595 498.005H610.854V498.45H612.526V498.915H610.854V498.937ZM611.552 497.307C612.187 497.307 612.547 496.989 612.547 496.418V496.397C612.547 495.783 612.166 495.529 611.552 495.529H610.854V497.307H611.552Z" fill="#1F680D"/>
<path d="M632.036 486.894C632.036 490.831 628.841 494.005 624.926 494.005C621.011 494.005 617.816 490.809 617.816 486.894C617.816 482.957 621.011 479.782 624.926 479.782C628.841 479.782 632.036 482.957 632.036 486.894Z" fill="#78B930"/>
<path d="M624.905 480.587C621.434 480.587 618.599 483.402 618.599 486.894C618.599 490.365 621.413 493.201 624.905 493.201C628.375 493.201 631.211 490.386 631.211 486.894C631.211 483.402 628.396 480.587 624.905 480.587ZM624.905 492.756C621.667 492.756 619.022 490.132 619.022 486.873C619.022 483.634 621.646 480.989 624.905 480.989C628.142 480.989 630.788 483.613 630.788 486.873C630.788 490.132 628.164 492.756 624.905 492.756Z" fill="#1F680D"/>
<path d="M624.905 481.793C622.09 481.793 619.805 484.079 619.805 486.894C619.805 489.709 622.09 491.995 624.905 491.995C627.719 491.995 630.005 489.709 630.005 486.894C630.026 484.079 627.74 481.793 624.905 481.793ZM624.905 491.656C622.281 491.656 620.143 489.518 620.143 486.894C620.143 484.269 622.281 482.132 624.905 482.132C627.529 482.132 629.666 484.269 629.666 486.894C629.666 489.518 627.55 491.656 624.905 491.656Z" fill="#1F680D"/>
<path d="M624.63 489.095V490.428H623.402V489.095H622.514V488.502H623.402V487.888H622.514V487.317H623.402V483.909H625.497C626.958 483.909 627.91 484.566 627.91 485.92V485.962C627.91 487.338 626.915 487.952 625.54 487.952H624.63V488.502H626.704V489.095H624.63ZM625.497 487.063C626.302 487.063 626.725 486.661 626.725 485.962V485.92C626.725 485.137 626.259 484.841 625.497 484.841H624.609V487.063H625.497Z" fill="#1F680D"/>
<path opacity="0.54" d="M575.704 794.251C604.198 794.251 627.296 785.656 627.296 775.054C627.296 764.452 604.198 755.857 575.704 755.857C547.211 755.857 524.112 764.452 524.112 775.054C524.112 785.656 547.211 794.251 575.704 794.251Z" fill="#53A100"/>
<path d="M575.704 789.933C604.198 789.933 627.296 781.338 627.296 770.736C627.296 760.134 604.198 751.54 575.704 751.54C547.211 751.54 524.112 760.134 524.112 770.736C524.112 781.338 547.211 789.933 575.704 789.933Z" fill="#A9D475"/>
<path d="M586.539 763.921V769.276H608.695L593.671 763.921H586.539Z" fill="#000F1F"/>
<path d="M533.592 763.921V769.276L546.987 775.414H552.997L541.76 763.921H533.592Z" fill="#000F1F"/>
<path d="M593.67 621.058V763.921H586.517C586.517 763.921 574.603 730.586 576.508 697.717L568.403 648.192L541.74 763.921H533.635C533.635 763.921 526.588 721.189 536.492 695.347L540.301 621.058H593.67Z" fill="#003591"/>
<path d="M593.67 621.058C593.67 621.058 580.635 631.239 539.877 630.011L540.343 621.058L571.133 615.365" fill="#002267"/>
<path d="M568.446 648.213L577.566 630.011L576.529 697.739L568.446 648.213Z" fill="#002267"/>
<path d="M576.593 488.714C575.979 487.698 575.492 486.64 575.069 485.561C569.356 485.391 559.092 486.259 557.42 494.492C557.42 494.492 546.882 505.773 560.193 522.536L565.843 523.171L573.99 516.44L585.121 500.926C585.121 500.926 586.433 500.884 588.041 500.418C583.386 497.498 579.386 493.413 576.593 488.714Z" fill="#131637"/>
<path d="M586.052 507.424C586.052 507.424 589.819 509.879 590.538 516.123H582.878L586.052 507.424Z" fill="#FF907D"/>
<path d="M564.171 522.536C564.171 522.536 567.451 518.049 568.297 513.181C568.297 513.181 562.33 511.953 563.345 507.593C564.192 503.974 568.742 505.202 570.181 508.313V512.461C570.181 512.461 572.508 512.398 572.932 504.44L575.661 500.926H585.121C585.121 500.926 588.591 508.863 587.533 518.599H581.121C581.121 518.599 582.497 521.118 586.962 522.049C586.539 523.911 585.988 525.795 585.142 527.7H575.725V534.579L570.329 537.034L565.673 538.515L561.716 536.695L560.256 531.637V522.557H564.171V522.536Z" fill="#FFCDA9"/>
<path d="M575.662 500.926C575.662 500.926 582.624 504.694 590.538 503.233L588.041 500.418C588.041 500.418 594.263 499.889 595.109 491.952H589.057C589.057 491.952 595.109 487.783 592.824 481.709L584.422 484.206L575.111 485.539L575.725 492.63" fill="#131637"/>
<path d="M585.713 539.256C585.713 539.256 602.43 559.236 608.652 563.828C622.957 558.58 632.247 545.881 632.247 545.881L648.034 553.479C648.034 553.479 635.633 572.485 610.937 585.078C594.474 582.644 584.358 566.897 584.358 566.897L585.713 539.256Z" fill="#CC163C"/>
<path d="M588.337 543.129L587.384 548.167L584.57 563.067L584.379 566.919C584.379 566.919 589.712 575.173 598.896 580.655L588.337 543.129Z" fill="#BF0A32"/>
<path d="M540.343 621.058C540.343 621.058 569.567 628.995 593.67 621.058C593.67 621.058 590.602 570.135 589.226 546.981C588.845 540.674 583.619 535.743 577.291 535.743L556.574 535.319C556.109 535.319 552.638 536.441 550.86 538.494C547.538 542.346 544.808 546.007 544.449 551.087L539.349 621.947C540.343 621.058 540.343 621.058 540.343 621.058Z" fill="#DF335E"/>
<path d="M592.929 608.783C568.255 594.687 564.763 572.421 561.843 554.368C559.705 541.203 552.637 539.595 548.405 541.521C546.268 544.378 544.723 547.341 544.448 551.087L543.496 564.379C543.961 566.792 544.511 568.95 544.956 570.58C554.309 605.418 579.809 616.698 593.627 620.318C593.522 618.688 593.289 614.497 592.929 608.783Z" fill="#E03354"/>
<path d="M576.341 557.267H587.388V553.479H576.341V557.267Z" fill="#CC163C"/>
<path d="M571.725 540.695C571.725 540.695 561.991 572.675 568.34 612.042L578.497 619.704L585.946 612.042C585.946 612.042 568.551 566.94 573.947 540.568L571.725 540.695Z" fill="#BF0A33"/>
<path d="M571.726 540.695C571.726 540.695 562.626 572.083 569.779 610.709L580.085 618.243L587.385 610.709C587.385 610.709 569.102 566.453 573.948 540.568L571.726 540.695Z" fill="#001F78"/>
<path d="M573.927 541.563C572.805 542.685 571.006 542.685 569.885 541.563L564.764 536.441L572.191 535.721C572.445 535.679 572.974 536.187 573.228 536.229L577.207 538.282L573.927 541.563Z" fill="#003591"/>
<path d="M572.191 535.742L578.836 542.431C578.836 542.431 580.635 536.229 575.683 532.017C575.683 531.996 574.942 535.044 572.191 535.742Z" fill="#CC163C"/>
<path d="M572.191 535.742C572.191 535.742 563.769 535.256 560.171 530.642C560.171 530.642 557.442 532.547 555.728 535.764C555.728 535.764 558.584 543.404 567.197 542.833L572.191 535.742Z" fill="#CC163C"/>
<path d="M639.929 608.719H586.517C582.031 608.719 578.412 605.079 578.412 600.613V547.193C578.412 542.706 582.052 539.087 586.517 539.087H639.929C644.415 539.087 648.034 542.727 648.034 547.193V600.613C648.034 605.1 644.415 608.719 639.929 608.719Z" fill="#FFE51C"/>
<path d="M620.757 539.066H605.669V608.719H620.757V539.066Z" fill="#FFA81C"/>
<path opacity="0.4" d="M614.725 606.539C614.725 606.539 588.316 595.724 578.391 575.236V593.671L596.548 608.719L611.53 610.836" fill="#FFA81C"/>
<path d="M546.078 543.468C548.702 539.298 558.606 536.843 563.071 552.632C568.7 572.527 575.662 597.713 611.552 606.899V615.068C611.552 615.068 566.795 617.587 548.173 570.686C545.824 564.781 540.915 551.658 546.078 543.468Z" fill="#CC163C"/>
<path d="M614.726 615.09C614.726 615.09 622.196 616.042 633.813 608.719H620.778L614.747 606.539V615.09H614.726Z" fill="#FFCDA9"/>
<path d="M610.135 615.098H614.727V606.547H610.135V615.098Z" fill="#CC163C"/>
<path d="M580.635 507.889C580.635 509.837 581.629 511.424 582.857 511.424C584.084 511.424 585.079 509.837 585.079 507.889C585.079 505.942 584.084 504.355 582.857 504.355C581.629 504.355 580.635 505.921 580.635 507.889Z" stroke="#001F78" stroke-width="0.3121" stroke-miterlimit="10"/>
<path d="M569.631 507.424H580.635" stroke="#001F78" stroke-width="0.3121" stroke-miterlimit="10" stroke-linecap="round" stroke-linejoin="round"/>
<path d="M585.079 507.89C585.079 507.89 586.327 507.551 587.364 507.89" stroke="#001F78" stroke-width="0.3121" stroke-miterlimit="10" stroke-linecap="round" stroke-linejoin="round"/>
<path d="M629.877 501.582V496.439C629.877 491.317 625.729 487.169 620.608 487.169C615.487 487.169 611.339 491.317 611.339 496.439V501.582" stroke="white" stroke-width="1.2486" stroke-miterlimit="10"/>
<path d="M608.483 539.066H632.692C635.697 539.066 638.152 536.632 638.152 533.605V498.662H603.023V533.605C603.023 536.632 605.478 539.066 608.483 539.066Z" fill="#CC163C"/>
<path d="M632.713 539.065H608.505C607.7 539.065 606.917 538.875 606.24 538.557L638.194 533.436V533.605C638.152 536.631 635.718 539.065 632.713 539.065Z" fill="#BF0A33"/>
<path d="M628.544 503.572C628.544 504.376 629.2 505.032 630.005 505.032C630.809 505.032 631.465 504.376 631.465 503.572C631.465 502.768 630.809 502.112 630.005 502.112C629.2 502.112 628.544 502.768 628.544 503.572Z" fill="#A9D475"/>
<path d="M611.319 505.032C612.125 505.032 612.779 504.379 612.779 503.572C612.779 502.765 612.125 502.112 611.319 502.112C610.512 502.112 609.858 502.765 609.858 503.572C609.858 504.379 610.512 505.032 611.319 505.032Z" fill="#A9D475"/>
<path d="M401.038 756.598H347.626C343.14 756.598 339.521 752.958 339.521 748.492V668.552C339.521 664.065 343.161 660.446 347.626 660.446H401.038C405.524 660.446 409.142 664.086 409.142 668.552V748.471C409.142 752.958 405.524 756.598 401.038 756.598Z" fill="#FFD11C"/>
<path opacity="0.4" d="M351.667 695.05L359.878 756.598H339.521L351.667 695.05Z" fill="#FFD11C"/>
<path d="M381.865 660.446H366.776V756.598H381.865V660.446Z" fill="#FFA81C"/>
<path d="M343.562 761.868H290.129C285.643 761.868 282.024 758.228 282.024 753.762V700.342C282.024 695.855 285.664 692.236 290.129 692.236H343.541C348.027 692.236 351.646 695.876 351.646 700.342V753.762C351.667 758.249 348.027 761.868 343.562 761.868Z" fill="#FFE51C"/>
<path d="M324.39 692.215H309.302V761.868H324.39V692.215Z" fill="#FFA81C"/>
<path d="M548.66 259.964C548.66 259.964 552.088 260.557 554.712 257.086C554.712 257.086 560.807 261.192 566.499 257.572C566.499 257.572 570.986 253.953 567.811 246.609C564.15 238.143 553.421 238.27 548.66 240.937C543.92 243.604 542.925 246.27 542.925 246.27L553.908 249.932L552.533 255.837L548.66 259.964Z" fill="#131637"/>
<path d="M423.806 715.496H421.161V708.66C421.161 702.607 416.23 697.675 410.157 697.675C404.105 697.675 399.174 702.607 399.174 708.66V715.496H396.529V708.66C396.529 701.146 402.645 695.03 410.157 695.03C417.669 695.03 423.785 701.146 423.785 708.66V715.496H423.806Z" fill="white"/>
<path d="M392.297 765.255H428.018C431.023 765.255 433.478 762.821 433.478 759.794V711.623H386.837V759.794C386.859 762.821 389.292 765.255 392.297 765.255Z" fill="#A9D475"/>
<path d="M420.717 718.121C420.717 719.179 421.585 720.047 422.643 720.047C423.722 720.047 424.569 719.179 424.569 718.121C424.569 717.062 423.701 716.195 422.643 716.195C421.585 716.195 420.717 717.062 420.717 718.121Z" fill="#A9D475"/>
<path d="M395.915 718.121C395.915 719.179 396.783 720.047 397.841 720.047C398.92 720.047 399.766 719.179 399.766 718.121C399.766 717.062 398.899 716.195 397.841 716.195C396.783 716.195 395.915 717.062 395.915 718.121Z" fill="#A9D475"/>
<defs>
<radialGradient id="paint0_radial" cx="0" cy="0" r="1" gradientUnits="userSpaceOnUse" gradientTransform="translate(441.117 385.937) rotate(0.444752) scale(501.715 724.75)">
<stop offset="0.136161" stop-color="#C10230"/>
<stop offset="0.791667" stop-color="#8F053F"/>
<stop offset="1" stop-color="#7D0645"/>
</radialGradient>
</defs>
</svg>
